<svg width="19" height="18" viewBox="0 0 19 18" fill="none" xmlns="http://www.w3.org/2000/svg">
<path d="M4.858 16.5106L9.4972 13.9423L14.3531 16.5106L13.0909 11.0071L17.2073 7.33805L11.7187 6.76935L9.4972 1.46761L7.25925 6.76935L1.77068 7.33805L5.88711 11.0071L4.858 16.5106ZM9.4972 15.0797L5.06824 17.8315C4.87258 17.9599 4.66803 18.0149 4.45459 17.9966C4.24114 17.9782 4.05438 17.9048 3.89429 17.7764C3.73421 17.648 3.6097 17.4877 3.52077 17.2954C3.43183 17.1024 3.41404 16.8867 3.46741 16.6482L4.64135 11.4474L0.719311 7.95261C0.541441 7.7875 0.43045 7.59928 0.386338 7.38795C0.341515 7.17734 0.354677 6.97115 0.425825 6.76935C0.496973 6.56755 0.603695 6.40245 0.745991 6.27403C0.888288 6.14562 1.08394 6.06306 1.33296 6.02637L6.50899 5.55857L8.51003 0.660425C8.59896 0.440283 8.73699 0.275177 8.92411 0.165106C9.11052 0.0550355 9.30155 0 9.4972 0C9.69286 0 9.88425 0.0550355 10.0714 0.165106C10.2578 0.275177 10.3954 0.440283 10.4844 0.660425L12.4854 5.55857L17.6614 6.02637C17.9105 6.06306 18.1061 6.14562 18.2484 6.27403C18.3907 6.40245 18.4974 6.56755 18.5686 6.76935C18.6397 6.97115 18.6533 7.17734 18.6091 7.38795C18.5643 7.59928 18.453 7.7875 18.2751 7.95261L14.3531 11.4474L15.527 16.6482C15.5804 16.8867 15.5626 17.1024 15.4736 17.2954C15.3847 17.4877 15.2602 17.648 15.1001 17.7764C14.94 17.9048 14.7533 17.9782 14.5398 17.9966C14.3264 18.0149 14.1218 17.9599 13.9262 17.8315L9.4972 15.0797Z" fill="#2F79E8"/>
</svg>
